HIERARCHY
ROOT Hips
{
	OFFSET 0.000000 0.000000 0.000000 
	CHANNELS 6 Xposition Yposition Zposition Yrotation Zrotation Xrotation 
	JOINT Lumbar
	{
		OFFSET 0.000000 0.000000 0.000000 
		CHANNELS 3 Zrotation Xrotation Yrotation
		JOINT Neck
		{
			OFFSET 0.000000 0.445665 0.000000 
			CHANNELS 3 Zrotation Xrotation Yrotation
			End Site
			{
				OFFSET 0.000000 0.227535 0.000000 
			}
		}
		JOINT RightShoulder
		{
			OFFSET 0.019635 0.377685 0.194865 
			CHANNELS 3 Zrotation Xrotation Yrotation
			JOINT RightElbow
			{
				OFFSET 0.000000 -0.243375 0.000000 
				CHANNELS 2 Zrotation Yrotation
				JOINT RightWrist
				{
					OFFSET 0.000000 -0.264825 0.000000 
					CHANNELS 2 Zrotation Xrotation
					End Site
					{
						OFFSET 0.006600 -0.176220 0.000990 
					}
				}
			}
		}
		JOINT LeftShoulder
		{
			OFFSET 0.019635 0.377685 -0.194865 
			CHANNELS 3 Zrotation Xrotation Yrotation
			JOINT LeftElbow
			{
				OFFSET 0.000000 -0.243375 0.000000 
				CHANNELS 2 Zrotation Yrotation
				JOINT LeftWrist
				{
					OFFSET 0.000000 -0.264825 0.000000 
					CHANNELS 2 Zrotation Xrotation
					End Site
					{
						OFFSET 0.006600 -0.176220 -0.000990 
					}
				}
			}
		}
	}
	JOINT RightHip
	{
		OFFSET 0.052140 -0.069960 0.075570 
		CHANNELS 3 Zrotation Xrotation Yrotation
		JOINT RightKnee
		{
			OFFSET 0.000000 -0.402270 0.000000 
			CHANNELS 1 Zrotation
			JOINT RightAnkle
			{
				OFFSET 0.000000 -0.404085 0.000000 
				CHANNELS 3 Zrotation Xrotation Yrotation
				End Site
				{
					OFFSET 0.204105 -0.089430 0.008415 
				}
			}
		}
	}
	JOINT LeftHip
	{
		OFFSET 0.052140 -0.069960 -0.075570 
		CHANNELS 3 Zrotation Xrotation Yrotation
		JOINT LeftKnee
		{
			OFFSET 0.000000 -0.402270 0.000000 
			CHANNELS 1 Zrotation
			JOINT LeftAnkle
			{
				OFFSET 0.000000 -0.404085 0.000000 
				CHANNELS 3 Zrotation Xrotation Yrotation
				End Site
				{
					OFFSET 0.204105 -0.089430 -0.008415 
				}
			}
		}
	}
}
MOTION
Frames: 22
Frame Time: 0.02
-0.00261 -0.00017 0.0043 139.1846 -35.52473 -3.06631 47.35012 2.29506 -5.91489 -14.11965 -4.09598 -0.1062 -24.03027 -12.06592 0.86505 37.41154 89.29534 6.49862 -0.41849 -28.22034 12.01285 -2.088 40.96411 -93.86711 10.85799 0.64803 37.50488 -0.24579 -9.987 -20.40014 -7.41592 -3.51465 -2.47928 37.86956 6.45406 1.89223 -26.9866 -9.10349 5.28431 3.62179
-0.00183 -0.00019 0.00324 139.315 -35.53144 -3.09951 47.25277 2.22827 -6.13696 -14.12315 -4.13654 -0.10696 -24.05759 -11.98905 0.9244 37.48494 89.27577 6.48275 -0.41354 -28.21631 12.15576 -2.15139 40.95521 -93.81809 10.8457 0.63785 37.50346 -0.11445 -9.92491 -20.4136 -7.42714 -3.53659 -2.49497 37.88399 6.67533 2.23909 -26.99429 -9.04028 5.23257 3.58526
-0.00106 -0.0002 0.00218 139.44523 -35.53822 -3.13261 47.15544 2.16151 -6.35849 -14.12661 -4.17708 -0.10772 -24.08493 -11.91225 0.98353 37.55815 89.25626 6.46696 -0.40861 -28.21214 12.29857 -2.21454 40.94628 -93.76914 10.83344 0.62771 37.50216 0.01673 -9.86308 -20.42706 -7.43834 -3.55849 -2.51064 37.89852 6.89611 2.58462 -27.00196 -8.97726 5.18098 3.54884
-0.00028 -0.00021 0.00112 139.57527 -35.54493 -3.16571 47.05835 2.0949 -6.57991 -14.13009 -4.21753 -0.10848 -24.11217 -11.83559 1.04268 37.63132 89.23675 6.45114 -0.40367 -28.20811 12.44109 -2.27774 40.93741 -93.72025 10.82119 0.61756 37.50076 0.14771 -9.80116 -20.44049 -7.44953 -3.58036 -2.5263 37.91292 7.11672 2.93037 -27.00964 -8.91424 5.12939 3.51242
0.00049 -0.00022 7e-05 139.70539 -35.55156 -3.19889 46.96133 2.02833 -6.80179 -14.13362 -4.258 -0.10925 -24.13936 -11.75896 1.1021 37.70468 89.21718 6.43523 -0.3987 -28.20426 12.58361 -2.34118 40.92856 -93.67135 10.80894 0.60738 37.49922 0.27876 -9.73901 -20.4539 -7.46075 -3.60227 -2.54198 37.92718 7.33775 3.27756 -27.01734 -8.85103 5.07766 3.47589
0.00127 -0.00024 -0.00099 139.83584 -35.55864 -3.23181 46.86332 1.96116 -7.02253 -14.13695 -4.29866 -0.11001 -24.16702 -11.68182 1.16061 37.77757 89.19781 6.41972 -0.39385 -28.19939 12.72701 -2.40369 40.91944 -93.6223 10.79666 0.59732 37.4984 0.41021 -9.67789 -20.46746 -7.47189 -3.62415 -2.55762 37.9423 7.55799 3.61961 -27.02493 -8.78844 5.02636 3.43971
0.00203 -0.00025 -0.00204 139.9655 -35.56478 -3.26525 46.76748 1.89528 -7.24541 -14.14067 -4.33886 -0.11076 -24.19368 -11.60575 1.22082 37.85129 89.17803 6.40336 -0.38876 -28.19666 12.86844 -2.46804 40.91096 -93.57356 10.78441 0.58701 37.49611 0.54071 -9.61462 -20.48071 -7.48318 -3.64607 -2.57333 37.95563 7.77954 3.97155 -27.03275 -8.72465 4.97425 3.40287
0.00281 -0.00026 -0.0031 140.09587 -35.57184 -3.29818 46.66953 1.8282 -7.46617 -14.14404 -4.37955 -0.11154 -24.2213 -11.52875 1.2796 37.92431 89.15872 6.38789 -0.3839 -28.1918 13.01174 -2.53062 40.90174 -93.5246 10.77224 0.57694 37.49523 0.67209 -9.55361 -20.49423 -7.49431 -3.66792 -2.58895 37.97067 7.99996 4.31448 -27.04033 -8.66197 4.92289 3.36663
0.00362 -0.00028 -0.00418 140.22729 -35.57981 -3.3306 46.56935 1.75963 -7.68505 -14.14694 -4.4206 -0.11231 -24.24999 -11.4503 1.33609 37.99624 89.1396 6.37309 -0.37928 -28.18492 13.15724 -2.59138 40.89217 -93.4751 10.75972 0.56712 37.49585 0.80464 -9.49426 -20.50815 -7.50533 -3.68983 -2.60456 37.98758 8.21883 4.64609 -27.04773 -8.60061 4.87242 3.33114
0.00428 -0.00028 -0.00515 140.35321 -35.58193 -3.36628 46.48302 1.69959 -7.91689 -14.1524 -4.45886 -0.11298 -24.27222 -11.37924 1.40411 38.07374 89.11821 6.35319 -0.37319 -28.19144 13.28984 -2.66365 40.8863 -93.42788 10.74786 0.55574 37.4872 0.93076 -9.42202 -20.52001 -7.51727 -3.71184 -2.62052 37.9931 8.4461 5.04192 -27.0565 -8.53155 4.81677 3.29136
0.00525 -0.00032 -0.00636 140.49033 -35.59678 -3.39489 46.36685 1.62157 -8.11996 -14.15258 -4.50346 -0.11397 -24.30823 -11.29326 1.44889 38.13994 89.10235 6.34483 -0.37025 -28.16856 13.44977 -2.71097 40.87157 -93.37638 10.73546 0.54774 37.49849 1.07022 -9.3791 -20.53606 -7.52708 -3.73334 -2.63558 38.02304 8.65594 5.30285 -27.06219 -8.47883 4.77206 3.26063
0.00703 -0.00044 -0.00821 140.66202 -35.64349 -3.40534 46.17249 1.4936 -8.25499 -14.13722 -4.56199 -0.11477 -24.38118 -11.16074 1.42052 38.17141 89.0959 6.36186 -0.37558 -28.07335 13.68456 -2.6946 40.84067 -93.30879 10.71465 0.54837 37.56152 1.24844 -9.3997 -20.56494 -7.53248 -3.75579 -2.64959 38.11721 8.81491 5.18421 -27.06093 -8.47061 4.75762 3.25507
0.00913 -0.00061 -0.01031 140.84435 -35.70336 -3.40834 45.94716 1.34775 -8.35903 -14.11681 -4.62758 -0.11607 -24.46813 -11.01456 1.3707 38.19241 89.09606 6.39151 -0.38413 -27.94699 13.94669 -2.65229 40.79926 -93.23772 10.69459 0.55252 37.64485 1.43963 -9.45269 -20.59774 -7.53547 -3.77729 -2.66244 38.23617 8.95675 4.93136 -27.05626 -8.47891 4.75418 3.25855
0.0111 -0.00076 -0.01231 141.01919 -35.7595 -3.41408 45.73401 1.21045 -8.47024 -14.09935 -4.69218 -0.11782 -24.5492 -10.87797 1.33667 38.2204 89.09695 6.41961 -0.3915 -27.82958 14.19655 -2.61872 40.75745 -93.17113 10.67869 0.55549 37.72117 1.6235 -9.50216 -20.62793 -7.53862 -3.79764 -2.67488 38.34596 9.10863 4.74668 -27.05224 -8.47978 4.74552 3.25762
0.01299 -0.00091 -0.01425 141.20484 -35.80703 -3.42299 45.53011 1.07114 -8.6109 -14.07894 -4.74726 -0.11673 -24.62817 -10.72595 1.27656 38.23818 89.08208 6.43053 -0.39777 -27.73451 14.44636 -2.59798 40.73787 -93.09232 10.64375 0.55669 37.78929 1.81353 -9.50521 -20.6618 -7.54572 -3.82463 -2.69126 38.44803 9.25169 4.53343 -27.0522 -8.48013 4.73766 3.25786
0.01512 -0.00106 -0.01638 141.371 -35.8745 -3.42297 45.29794 0.932 -8.68245 -14.06371 -4.82404 -0.12164 -24.71492 -10.60426 1.26635 38.27571 89.1016 6.47967 -0.407 -27.585 14.70209 -2.54437 40.669 -93.03811 10.64868 0.56243 37.87788 1.9937 -9.61163 -20.68872 -7.54403 -3.83763 -2.6992 38.57071 9.40814 4.34535 -27.04282 -8.48578 4.73095 3.25797
0.01782 -0.00124 -0.01898 141.47689 -36.00406 -3.40488 45.01032 0.79599 -8.57459 -14.06203 -4.95711 -0.14327 -24.81857 -10.55777 1.39314 38.36181 89.21475 6.63624 -0.4243 -27.29748 14.97281 -2.40661 40.47094 -93.05589 10.76393 0.57905 38.03099 2.14449 -10.00278 -20.69742 -7.5187 -3.81173 -2.68382 38.75666 9.61355 4.28119 -27.01071 -8.49932 4.72271 3.25414
0.02075 -0.00142 -0.02178 141.56377 -36.15181 -3.37708 44.693 0.66124 -8.39759 -14.06615 -5.11205 -0.17087 -24.92955 -10.54459 1.57175 38.46952 89.36224 6.83003 -0.44435 -26.95547 15.24737 -2.2368 40.22297 -93.10003 10.91964 0.59989 38.20217 2.28481 -10.49458 -20.69869 -7.48466 -3.772 -2.66012 38.96083 9.83146 4.24273 -26.96899 -8.51816 4.71563 3.25014
0.02358 -0.0016 -0.02449 141.66159 -36.28389 -3.35068 44.37885 0.52688 -8.2497 -14.06889 -5.2583 -0.1956 -25.0382 -10.52389 1.73097 38.57324 89.4938 7.00335 -0.46269 -26.63524 15.51691 -2.08124 39.99484 -93.12729 11.05599 0.6198 38.35581 2.42914 -10.93675 -20.70201 -7.45453 -3.73877 -2.64035 39.1477 10.03872 4.17872 -26.93009 -8.53626 4.70935 3.24711
0.0264 -0.00177 -0.02718 141.74908 -36.44566 -3.33706 44.10533 0.38728 -8.11033 -14.06601 -5.3998 -0.22108 -25.14403 -10.47025 1.87303 38.65295 89.62689 7.19162 -0.48303 -26.32616 15.80201 -1.92535 39.7778 -93.16647 11.19467 0.6372 38.54705 2.57672 -11.40025 -20.71079 -7.42432 -3.7041 -2.61961 39.37084 10.26688 4.16966 -26.89721 -8.5477 4.69784 3.2406
0.02929 -0.00197 -0.02996 141.85466 -36.55231 -3.29422 43.74288 0.25983 -7.93736 -14.07645 -5.55592 -0.24631 -25.25613 -10.4937 2.06198 38.78672 89.76497 7.35804 -0.49989 -25.98176 16.0543 -1.76383 39.52662 -93.19796 11.34036 0.65884 38.66713 2.71533 -11.83807 -20.70672 -7.39249 -3.6698 -2.5993 39.52579 10.45407 4.05262 -26.85004 -8.5743 4.69737 3.24121
0.03231 -0.00225 -0.03297 142.0045 -36.47897 -3.17634 43.12144 0.15956 -7.68721 -14.12103 -5.74975 -0.27023 -25.39344 -10.71875 2.38014 39.07414 89.90726 7.44971 -0.50584 -25.55045 16.22297 -1.58705 39.18741 -93.10737 11.47585 0.70825 38.5576 2.82742 -12.22208 -20.66574 -7.35609 -3.63413 -2.57901 39.45779 10.53062 3.64506 -26.76237 -8.63932 4.72678 3.26124
